<svg xmlns="http://www.w3.org/2000/svg" viewBox="0 0 1600 1000" role="img" aria-labelledby="title desc">
  <title id="title">GTM and GA4 measurement dashboard preview</title>
  <desc id="desc">Dark dashboard preview showing UTM governance, GA4 taxonomy, GTM trigger mapping, and conversion QA checks.</desc>
  <defs>
    <linearGradient id="bg" x1="0" x2="1" y1="0" y2="1">
      <stop offset="0" stop-color="#0a0e1a"/>
      <stop offset=".58" stop-color="#111827"/>
      <stop offset="1" stop-color="#312e81"/>
    </linearGradient>
    <linearGradient id="accent" x1="0" x2="1">
      <stop offset="0" stop-color="#a78bfa"/>
      <stop offset="1" stop-color="#60a5fa"/>
    </linearGradient>
  </defs>
  <rect width="1600" height="1000" fill="url(#bg)"/>
  <path d="M0 780 C260 660 340 930 610 820 C850 720 990 650 1600 780 V1000 H0 Z" fill="#60a5fa" opacity=".08"/>
  <rect x="86" y="78" width="1428" height="844" rx="42" fill="#111827" opacity=".84" stroke="#1f2937" stroke-width="3"/>
  <text x="136" y="170" fill="#a78bfa" font-family="Inter, Arial, sans-serif" font-size="26" font-weight="900" letter-spacing="5">LIVE STREAMLIT APP</text>
  <text x="136" y="232" fill="#f3f4f6" font-family="Poppins, Arial, sans-serif" font-size="58" font-weight="700">GTM + GA4 Measurement Dashboard</text>
  <rect x="136" y="300" width="392" height="244" rx="28" fill="#0a0e1a" stroke="#1f2937" stroke-width="2"/>
  <text x="176" y="362" fill="#f3f4f6" font-family="Poppins, Arial, sans-serif" font-size="34" font-weight="600">UTM Governance</text>
  <rect x="176" y="402" width="274" height="18" rx="9" fill="#1f2937"/>
  <rect x="176" y="402" width="230" height="18" rx="9" fill="#34d399"/>
  <rect x="176" y="452" width="274" height="18" rx="9" fill="#1f2937"/>
  <rect x="176" y="452" width="194" height="18" rx="9" fill="#60a5fa"/>
  <text x="176" y="510" fill="#9ca3af" font-family="Inter, Arial, sans-serif" font-size="23" font-weight="700">Campaign URLs validated</text>
  <rect x="574" y="300" width="392" height="244" rx="28" fill="#0a0e1a" stroke="#1f2937" stroke-width="2"/>
  <text x="614" y="362" fill="#f3f4f6" font-family="Poppins, Arial, sans-serif" font-size="34" font-weight="600">GA4 Taxonomy</text>
  <g fill="#1f2937">
    <rect x="614" y="398" width="286" height="38" rx="10"/>
    <rect x="614" y="452" width="286" height="38" rx="10"/>
    <rect x="614" y="506" width="208" height="38" rx="10"/>
  </g>
  <g fill="#60a5fa" font-family="Inter, Arial, sans-serif" font-size="20" font-weight="800">
    <text x="636" y="423">generate_lead</text>
    <text x="636" y="477">qualified_signup</text>
    <text x="636" y="531">book_demo</text>
  </g>
  <rect x="1012" y="300" width="392" height="244" rx="28" fill="#0a0e1a" stroke="#1f2937" stroke-width="2"/>
  <text x="1052" y="362" fill="#f3f4f6" font-family="Poppins, Arial, sans-serif" font-size="34" font-weight="600">QA Readiness</text>
  <circle cx="1112" cy="462" r="54" fill="#34d399" opacity=".16"/>
  <path d="M1084 462 L1104 482 L1142 438" fill="none" stroke="#34d399" stroke-width="14" stroke-linecap="round" stroke-linejoin="round"/>
  <text x="1192" y="452" fill="#f59e0b" font-family="Poppins, Arial, sans-serif" font-size="42" font-weight="700">92%</text>
  <text x="1192" y="496" fill="#9ca3af" font-family="Inter, Arial, sans-serif" font-size="22" font-weight="800">TRACKING READY</text>
  <rect x="136" y="608" width="1268" height="224" rx="28" fill="#0a0e1a" stroke="#1f2937" stroke-width="2"/>
  <text x="176" y="668" fill="#f3f4f6" font-family="Poppins, Arial, sans-serif" font-size="34" font-weight="600">Trigger Mapping Pipeline</text>
  <g stroke="url(#accent)" stroke-width="8" stroke-linecap="round" fill="none">
    <path d="M234 748 H470"/>
    <path d="M578 748 H814"/>
    <path d="M922 748 H1158"/>
  </g>
  <g>
    <rect x="176" y="708" width="234" height="80" rx="20" fill="#111827" stroke="#1f2937" stroke-width="2"/>
    <rect x="518" y="708" width="234" height="80" rx="20" fill="#111827" stroke="#1f2937" stroke-width="2"/>
    <rect x="860" y="708" width="234" height="80" rx="20" fill="#111827" stroke="#1f2937" stroke-width="2"/>
    <rect x="1202" y="708" width="234" height="80" rx="20" fill="#111827" stroke="#1f2937" stroke-width="2"/>
  </g>
  <g fill="#f3f4f6" font-family="Inter, Arial, sans-serif" font-size="24" font-weight="900">
    <text x="228" y="757">UTM Rules</text>
    <text x="566" y="757">GA4 Events</text>
    <text x="912" y="757">GTM Triggers</text>
    <text x="1240" y="757">Conversion QA</text>
  </g>
</svg>
